<svg xmlns="http://www.w3.org/2000/svg" version="1.1" xmlns:xlink="http://www.w3.org/1999/xlink" xmlns:svgjs="http://svgjs.com/svgjs" width="1440" height="560" preserveAspectRatio="none" viewBox="0 0 1440 560"><g mask="url(&quot;#SvgjsMask4464&quot;)" fill="none"><rect width="1440" height="560" x="0" y="0" fill="url(#SvgjsLinearGradient4465)"></rect><path d="M73.84 88.29L138.8 125.79L138.8 200.79L73.84 238.29L8.89 200.79L8.89 125.79zM8.89 425.79L73.84 463.29L73.84 538.29L8.89 575.79L-56.06 538.29L-56.06 463.29zM138.8 200.79L203.75 238.29L203.75 313.29L138.8 350.79L73.84 313.29L73.84 238.29zM203.75 313.29L268.7 350.79L268.7 425.79L203.75 463.29L138.8 425.79L138.8 350.79zM203.75 538.29L268.7 575.79L268.7 650.79L203.75 688.29L138.8 650.79L138.8 575.79zM268.7 200.79L333.66 238.29L333.66 313.29L268.7 350.79L203.75 313.29L203.75 238.29zM398.61 -24.21L463.57 13.29L463.57 88.29L398.61 125.79L333.66 88.29L333.66 13.29zM463.57 88.29L528.52 125.79L528.52 200.79L463.57 238.29L398.61 200.79L398.61 125.79zM398.61 200.79L463.57 238.29L463.57 313.29L398.61 350.79L333.66 313.29L333.66 238.29zM463.57 313.29L528.52 350.79L528.52 425.79L463.57 463.29L398.61 425.79L398.61 350.79zM398.61 425.79L463.57 463.29L463.57 538.29L398.61 575.79L333.66 538.29L333.66 463.29zM463.57 538.29L528.52 575.79L528.52 650.79L463.57 688.29L398.61 650.79L398.61 575.79zM528.52 -24.21L593.47 13.29L593.47 88.29L528.52 125.79L463.57 88.29L463.57 13.29zM593.47 313.29L658.43 350.79L658.43 425.79L593.47 463.29L528.52 425.79L528.52 350.79zM723.38 88.29L788.34 125.79L788.34 200.79L723.38 238.29L658.43 200.79L658.43 125.79zM658.43 200.79L723.38 238.29L723.38 313.29L658.43 350.79L593.47 313.29L593.47 238.29zM788.33 -24.21L853.29 13.29L853.29 88.29L788.33 125.79L723.38 88.29L723.38 13.29zM853.29 313.29L918.24 350.79L918.24 425.79L853.29 463.29L788.33 425.79L788.33 350.79zM853.29 538.29L918.24 575.79L918.24 650.79L853.29 688.29L788.33 650.79L788.33 575.79zM983.2 88.29L1048.15 125.79L1048.15 200.79L983.2 238.29L918.24 200.79L918.24 125.79zM918.24 200.79L983.2 238.29L983.2 313.29L918.24 350.79L853.29 313.29L853.29 238.29zM1113.1 88.29L1178.06 125.79L1178.06 200.79L1113.1 238.29L1048.15 200.79L1048.15 125.79zM1048.15 200.79L1113.1 238.29L1113.1 313.29L1048.15 350.79L983.2 313.29L983.2 238.29zM1178.06 200.79L1243.01 238.29L1243.01 313.29L1178.06 350.79L1113.1 313.29L1113.1 238.29zM1243.01 313.29L1307.96 350.79L1307.96 425.79L1243.01 463.29L1178.06 425.79L1178.06 350.79zM1178.06 425.79L1243.01 463.29L1243.01 538.29L1178.06 575.79L1113.1 538.29L1113.1 463.29zM1243.01 538.29L1307.96 575.79L1307.96 650.79L1243.01 688.29L1178.06 650.79L1178.06 575.79zM1307.97 425.79L1372.92 463.29L1372.92 538.29L1307.97 575.79L1243.01 538.29L1243.01 463.29zM1372.92 538.29L1437.87 575.79L1437.87 650.79L1372.92 688.29L1307.97 650.79L1307.97 575.79zM1437.87 -24.21L1502.83 13.29L1502.83 88.29L1437.87 125.79L1372.92 88.29L1372.92 13.29zM1502.83 538.29L1567.78 575.79L1567.78 650.79L1502.83 688.29L1437.87 650.79L1437.87 575.79z" stroke="url(#SvgjsLinearGradient4466)" stroke-width="2"></path><path d="M66.34 88.29 a7.5 7.5 0 1 0 15 0 a7.5 7.5 0 1 0 -15 0zM131.3 125.79 a7.5 7.5 0 1 0 15 0 a7.5 7.5 0 1 0 -15 0zM131.3 200.79 a7.5 7.5 0 1 0 15 0 a7.5 7.5 0 1 0 -15 0zM66.34 238.29 a7.5 7.5 0 1 0 15 0 a7.5 7.5 0 1 0 -15 0zM1.39 200.79 a7.5 7.5 0 1 0 15 0 a7.5 7.5 0 1 0 -15 0zM1.39 125.79 a7.5 7.5 0 1 0 15 0 a7.5 7.5 0 1 0 -15 0zM1.39 425.79 a7.5 7.5 0 1 0 15 0 a7.5 7.5 0 1 0 -15 0zM66.34 463.29 a7.5 7.5 0 1 0 15 0 a7.5 7.5 0 1 0 -15 0zM66.34 538.29 a7.5 7.5 0 1 0 15 0 a7.5 7.5 0 1 0 -15 0zM1.39 575.79 a7.5 7.5 0 1 0 15 0 a7.5 7.5 0 1 0 -15 0zM-63.56 538.29 a7.5 7.5 0 1 0 15 0 a7.5 7.5 0 1 0 -15 0zM-63.56 463.29 a7.5 7.5 0 1 0 15 0 a7.5 7.5 0 1 0 -15 0zM196.25 238.29 a7.5 7.5 0 1 0 15 0 a7.5 7.5 0 1 0 -15 0zM196.25 313.29 a7.5 7.5 0 1 0 15 0 a7.5 7.5 0 1 0 -15 0zM131.3 350.79 a7.5 7.5 0 1 0 15 0 a7.5 7.5 0 1 0 -15 0zM66.34 313.29 a7.5 7.5 0 1 0 15 0 a7.5 7.5 0 1 0 -15 0zM261.2 350.79 a7.5 7.5 0 1 0 15 0 a7.5 7.5 0 1 0 -15 0zM261.2 425.79 a7.5 7.5 0 1 0 15 0 a7.5 7.5 0 1 0 -15 0zM196.25 463.29 a7.5 7.5 0 1 0 15 0 a7.5 7.5 0 1 0 -15 0zM131.3 425.79 a7.5 7.5 0 1 0 15 0 a7.5 7.5 0 1 0 -15 0zM196.25 538.29 a7.5 7.5 0 1 0 15 0 a7.5 7.5 0 1 0 -15 0zM261.2 575.79 a7.5 7.5 0 1 0 15 0 a7.5 7.5 0 1 0 -15 0zM261.2 650.79 a7.5 7.5 0 1 0 15 0 a7.5 7.5 0 1 0 -15 0zM196.25 688.29 a7.5 7.5 0 1 0 15 0 a7.5 7.5 0 1 0 -15 0zM131.3 650.79 a7.5 7.5 0 1 0 15 0 a7.5 7.5 0 1 0 -15 0zM131.3 575.79 a7.5 7.5 0 1 0 15 0 a7.5 7.5 0 1 0 -15 0zM261.2 200.79 a7.5 7.5 0 1 0 15 0 a7.5 7.5 0 1 0 -15 0zM326.16 238.29 a7.5 7.5 0 1 0 15 0 a7.5 7.5 0 1 0 -15 0zM326.16 313.29 a7.5 7.5 0 1 0 15 0 a7.5 7.5 0 1 0 -15 0zM391.11 -24.21 a7.5 7.5 0 1 0 15 0 a7.5 7.5 0 1 0 -15 0zM456.07 13.29 a7.5 7.5 0 1 0 15 0 a7.5 7.5 0 1 0 -15 0zM456.07 88.29 a7.5 7.5 0 1 0 15 0 a7.5 7.5 0 1 0 -15 0zM391.11 125.79 a7.5 7.5 0 1 0 15 0 a7.5 7.5 0 1 0 -15 0zM326.16 88.29 a7.5 7.5 0 1 0 15 0 a7.5 7.5 0 1 0 -15 0zM326.16 13.29 a7.5 7.5 0 1 0 15 0 a7.5 7.5 0 1 0 -15 0zM521.02 125.79 a7.5 7.5 0 1 0 15 0 a7.5 7.5 0 1 0 -15 0zM521.02 200.79 a7.5 7.5 0 1 0 15 0 a7.5 7.5 0 1 0 -15 0zM456.07 238.29 a7.5 7.5 0 1 0 15 0 a7.5 7.5 0 1 0 -15 0zM391.11 200.79 a7.5 7.5 0 1 0 15 0 a7.5 7.5 0 1 0 -15 0zM456.07 313.29 a7.5 7.5 0 1 0 15 0 a7.5 7.5 0 1 0 -15 0zM391.11 350.79 a7.5 7.5 0 1 0 15 0 a7.5 7.5 0 1 0 -15 0zM521.02 350.79 a7.5 7.5 0 1 0 15 0 a7.5 7.5 0 1 0 -15 0zM521.02 425.79 a7.5 7.5 0 1 0 15 0 a7.5 7.5 0 1 0 -15 0zM456.07 463.29 a7.5 7.5 0 1 0 15 0 a7.5 7.5 0 1 0 -15 0zM391.11 425.79 a7.5 7.5 0 1 0 15 0 a7.5 7.5 0 1 0 -15 0zM456.07 538.29 a7.5 7.5 0 1 0 15 0 a7.5 7.5 0 1 0 -15 0zM391.11 575.79 a7.5 7.5 0 1 0 15 0 a7.5 7.5 0 1 0 -15 0zM326.16 538.29 a7.5 7.5 0 1 0 15 0 a7.5 7.5 0 1 0 -15 0zM326.16 463.29 a7.5 7.5 0 1 0 15 0 a7.5 7.5 0 1 0 -15 0zM521.02 575.79 a7.5 7.5 0 1 0 15 0 a7.5 7.5 0 1 0 -15 0zM521.02 650.79 a7.5 7.5 0 1 0 15 0 a7.5 7.5 0 1 0 -15 0zM456.07 688.29 a7.5 7.5 0 1 0 15 0 a7.5 7.5 0 1 0 -15 0zM391.11 650.79 a7.5 7.5 0 1 0 15 0 a7.5 7.5 0 1 0 -15 0zM521.02 -24.21 a7.5 7.5 0 1 0 15 0 a7.5 7.5 0 1 0 -15 0zM585.97 13.29 a7.5 7.5 0 1 0 15 0 a7.5 7.5 0 1 0 -15 0zM585.97 88.29 a7.5 7.5 0 1 0 15 0 a7.5 7.5 0 1 0 -15 0zM585.97 313.29 a7.5 7.5 0 1 0 15 0 a7.5 7.5 0 1 0 -15 0zM650.93 350.79 a7.5 7.5 0 1 0 15 0 a7.5 7.5 0 1 0 -15 0zM650.93 425.79 a7.5 7.5 0 1 0 15 0 a7.5 7.5 0 1 0 -15 0zM585.97 463.29 a7.5 7.5 0 1 0 15 0 a7.5 7.5 0 1 0 -15 0zM715.88 88.29 a7.5 7.5 0 1 0 15 0 a7.5 7.5 0 1 0 -15 0zM780.84 125.79 a7.5 7.5 0 1 0 15 0 a7.5 7.5 0 1 0 -15 0zM780.84 200.79 a7.5 7.5 0 1 0 15 0 a7.5 7.5 0 1 0 -15 0zM715.88 238.29 a7.5 7.5 0 1 0 15 0 a7.5 7.5 0 1 0 -15 0zM650.93 200.79 a7.5 7.5 0 1 0 15 0 a7.5 7.5 0 1 0 -15 0zM650.93 125.79 a7.5 7.5 0 1 0 15 0 a7.5 7.5 0 1 0 -15 0zM715.88 313.29 a7.5 7.5 0 1 0 15 0 a7.5 7.5 0 1 0 -15 0zM585.97 238.29 a7.5 7.5 0 1 0 15 0 a7.5 7.5 0 1 0 -15 0zM780.83 -24.21 a7.5 7.5 0 1 0 15 0 a7.5 7.5 0 1 0 -15 0zM845.79 13.29 a7.5 7.5 0 1 0 15 0 a7.5 7.5 0 1 0 -15 0zM845.79 88.29 a7.5 7.5 0 1 0 15 0 a7.5 7.5 0 1 0 -15 0zM780.83 125.79 a7.5 7.5 0 1 0 15 0 a7.5 7.5 0 1 0 -15 0zM715.88 13.29 a7.5 7.5 0 1 0 15 0 a7.5 7.5 0 1 0 -15 0zM845.79 313.29 a7.5 7.5 0 1 0 15 0 a7.5 7.5 0 1 0 -15 0zM910.74 350.79 a7.5 7.5 0 1 0 15 0 a7.5 7.5 0 1 0 -15 0zM910.74 425.79 a7.5 7.5 0 1 0 15 0 a7.5 7.5 0 1 0 -15 0zM845.79 463.29 a7.5 7.5 0 1 0 15 0 a7.5 7.5 0 1 0 -15 0zM780.83 425.79 a7.5 7.5 0 1 0 15 0 a7.5 7.5 0 1 0 -15 0zM780.83 350.79 a7.5 7.5 0 1 0 15 0 a7.5 7.5 0 1 0 -15 0zM845.79 538.29 a7.5 7.5 0 1 0 15 0 a7.5 7.5 0 1 0 -15 0zM910.74 575.79 a7.5 7.5 0 1 0 15 0 a7.5 7.5 0 1 0 -15 0zM910.74 650.79 a7.5 7.5 0 1 0 15 0 a7.5 7.5 0 1 0 -15 0zM845.79 688.29 a7.5 7.5 0 1 0 15 0 a7.5 7.5 0 1 0 -15 0zM780.83 650.79 a7.5 7.5 0 1 0 15 0 a7.5 7.5 0 1 0 -15 0zM780.83 575.79 a7.5 7.5 0 1 0 15 0 a7.5 7.5 0 1 0 -15 0zM975.7 88.29 a7.5 7.5 0 1 0 15 0 a7.5 7.5 0 1 0 -15 0zM1040.65 125.79 a7.5 7.5 0 1 0 15 0 a7.5 7.5 0 1 0 -15 0zM1040.65 200.79 a7.5 7.5 0 1 0 15 0 a7.5 7.5 0 1 0 -15 0zM975.7 238.29 a7.5 7.5 0 1 0 15 0 a7.5 7.5 0 1 0 -15 0zM910.74 200.79 a7.5 7.5 0 1 0 15 0 a7.5 7.5 0 1 0 -15 0zM910.74 125.79 a7.5 7.5 0 1 0 15 0 a7.5 7.5 0 1 0 -15 0zM975.7 313.29 a7.5 7.5 0 1 0 15 0 a7.5 7.5 0 1 0 -15 0zM845.79 238.29 a7.5 7.5 0 1 0 15 0 a7.5 7.5 0 1 0 -15 0zM1105.6 88.29 a7.5 7.5 0 1 0 15 0 a7.5 7.5 0 1 0 -15 0zM1170.56 125.79 a7.5 7.5 0 1 0 15 0 a7.5 7.5 0 1 0 -15 0zM1170.56 200.79 a7.5 7.5 0 1 0 15 0 a7.5 7.5 0 1 0 -15 0zM1105.6 238.29 a7.5 7.5 0 1 0 15 0 a7.5 7.5 0 1 0 -15 0zM1105.6 313.29 a7.5 7.5 0 1 0 15 0 a7.5 7.5 0 1 0 -15 0zM1040.65 350.79 a7.5 7.5 0 1 0 15 0 a7.5 7.5 0 1 0 -15 0zM1235.51 238.29 a7.5 7.5 0 1 0 15 0 a7.5 7.5 0 1 0 -15 0zM1235.51 313.29 a7.5 7.5 0 1 0 15 0 a7.5 7.5 0 1 0 -15 0zM1170.56 350.79 a7.5 7.5 0 1 0 15 0 a7.5 7.5 0 1 0 -15 0zM1300.46 350.79 a7.5 7.5 0 1 0 15 0 a7.5 7.5 0 1 0 -15 0zM1300.46 425.79 a7.5 7.5 0 1 0 15 0 a7.5 7.5 0 1 0 -15 0zM1235.51 463.29 a7.5 7.5 0 1 0 15 0 a7.5 7.5 0 1 0 -15 0zM1170.56 425.79 a7.5 7.5 0 1 0 15 0 a7.5 7.5 0 1 0 -15 0zM1235.51 538.29 a7.5 7.5 0 1 0 15 0 a7.5 7.5 0 1 0 -15 0zM1170.56 575.79 a7.5 7.5 0 1 0 15 0 a7.5 7.5 0 1 0 -15 0zM1105.6 538.29 a7.5 7.5 0 1 0 15 0 a7.5 7.5 0 1 0 -15 0zM1105.6 463.29 a7.5 7.5 0 1 0 15 0 a7.5 7.5 0 1 0 -15 0zM1300.46 575.79 a7.5 7.5 0 1 0 15 0 a7.5 7.5 0 1 0 -15 0zM1300.46 650.79 a7.5 7.5 0 1 0 15 0 a7.5 7.5 0 1 0 -15 0zM1235.51 688.29 a7.5 7.5 0 1 0 15 0 a7.5 7.5 0 1 0 -15 0zM1170.56 650.79 a7.5 7.5 0 1 0 15 0 a7.5 7.5 0 1 0 -15 0zM1300.47 425.79 a7.5 7.5 0 1 0 15 0 a7.5 7.5 0 1 0 -15 0zM1365.42 463.29 a7.5 7.5 0 1 0 15 0 a7.5 7.5 0 1 0 -15 0zM1365.42 538.29 a7.5 7.5 0 1 0 15 0 a7.5 7.5 0 1 0 -15 0zM1300.47 575.79 a7.5 7.5 0 1 0 15 0 a7.5 7.5 0 1 0 -15 0zM1430.37 575.79 a7.5 7.5 0 1 0 15 0 a7.5 7.5 0 1 0 -15 0zM1430.37 650.79 a7.5 7.5 0 1 0 15 0 a7.5 7.5 0 1 0 -15 0zM1365.42 688.29 a7.5 7.5 0 1 0 15 0 a7.5 7.5 0 1 0 -15 0zM1300.47 650.79 a7.5 7.5 0 1 0 15 0 a7.5 7.5 0 1 0 -15 0zM1430.37 -24.21 a7.5 7.5 0 1 0 15 0 a7.5 7.5 0 1 0 -15 0zM1495.33 13.29 a7.5 7.5 0 1 0 15 0 a7.5 7.5 0 1 0 -15 0zM1495.33 88.29 a7.5 7.5 0 1 0 15 0 a7.5 7.5 0 1 0 -15 0zM1430.37 125.79 a7.5 7.5 0 1 0 15 0 a7.5 7.5 0 1 0 -15 0zM1365.42 88.29 a7.5 7.5 0 1 0 15 0 a7.5 7.5 0 1 0 -15 0zM1365.42 13.29 a7.5 7.5 0 1 0 15 0 a7.5 7.5 0 1 0 -15 0zM1495.33 538.29 a7.5 7.5 0 1 0 15 0 a7.5 7.5 0 1 0 -15 0zM1560.28 575.79 a7.5 7.5 0 1 0 15 0 a7.5 7.5 0 1 0 -15 0zM1560.28 650.79 a7.5 7.5 0 1 0 15 0 a7.5 7.5 0 1 0 -15 0zM1495.33 688.29 a7.5 7.5 0 1 0 15 0 a7.5 7.5 0 1 0 -15 0z" fill="url(#SvgjsLinearGradient4466)"></path></g><defs><mask id="SvgjsMask4464"><rect width="1440" height="560" fill="#ffffff"></rect></mask><linearGradient x1="0%" y1="50%" x2="100%" y2="50%" gradientUnits="userSpaceOnUse" id="SvgjsLinearGradient4465"><stop stop-color="rgba(214, 205, 16, 1)" offset="0"></stop><stop stop-color="rgba(82, 79, 25, 1)" offset="0.47"></stop><stop stop-color="rgba(0, 0, 0, 1)" offset="1"></stop></linearGradient><linearGradient x1="220.03199999999998" y1="-220.02399999999997" x2="1219.9679999999998" y2="780.024" gradientUnits="userSpaceOnUse" id="SvgjsLinearGradient4466"><stop stop-color="rgba(109, 45, 149, 1)" offset="0"></stop><stop stop-color="rgba(255, 255, 255, 1)" offset="1"></stop></linearGradient></defs></svg>